<?xml version="1.0" encoding="utf-8"?>
<!DOCTYPE svg PUBLIC "-//W3C//DTD SVG 1.1//EN" "http://www.w3.org/Graphics/SVG/1.1/DTD/svg11.dtd">
<!-- Generated by graphviz version 2.43.0 (0)
 -->
<!-- Title: stones Pages: 1 -->
<svg height="886pt" viewBox="0.00 0.00 915.0 886.0" width="915pt" xmlns="http://www.w3.org/2000/svg" xmlns:xlink="http://www.w3.org/1999/xlink">
 <g class="graph" id="graph0" transform="scale(1 1) rotate(0) translate(4 832)">
  <title>
   stones
  </title>
  <polygon fill="white" points="-4,4 -4,-832 861,-832 861,4 -4,4" stroke="transparent"/>
  <!-- Codeforces -->
  <g class="node" id="node1">
   <title>
    Codeforces
   </title>
   <g id="a_node1">
    <a target="_parent" xlink:href="https://codeforces.com/problemset" xlink:title="Codeforces(14)">
     <polygon fill="orangered" points="521.5,-828 399.5,-828 399.5,-792 521.5,-792 521.5,-828" stroke="lightgrey"/>
     <text fill="white" font-family="Microsoft YaHei" font-size="14.00" text-anchor="middle" x="460.5" y="-806.3">
      Codeforces(14)
     </text>
    </a>
   </g>
  </g>
  <!-- 基础题 -->
  <g class="node" id="node2">
   <title>
    基础题
   </title>
   <polygon fill="lightslategray" points="211,-756 134,-756 134,-720 211,-720 211,-756" stroke="lightgrey"/>
   <text fill="white" font-family="Microsoft YaHei" font-size="12.00" text-anchor="middle" x="172.5" y="-734.9">
    基础题(10)
   </text>
  </g>
  <!-- Codeforces&#45;&gt;基础题 -->
  <g class="edge" id="edge1">
   <title>
    Codeforces-&gt;基础题
   </title>
   <path d="M399.42,-794.15C346.28,-781.24 270.29,-762.77 221.17,-750.83" fill="none" stroke="lightgrey"/>
   <polygon fill="lightgrey" points="221.96,-747.42 211.42,-748.46 220.31,-754.22 221.96,-747.42" stroke="lightgrey"/>
  </g>
  <!-- Maths -->
  <g class="node" id="node13">
   <title>
    Maths
   </title>
   <polygon fill="lightslategray" points="336,-756 267,-756 267,-720 336,-720 336,-756" stroke="lightgrey"/>
   <text fill="white" font-family="Microsoft YaHei" font-size="12.00" text-anchor="middle" x="301.5" y="-734.9">
    Maths(1)
   </text>
  </g>
  <!-- Codeforces&#45;&gt;Maths -->
  <g class="edge" id="edge12">
   <title>
    Codeforces-&gt;Maths
   </title>
   <path d="M421.6,-791.88C398.55,-781.73 369.28,-768.84 345.4,-758.33" fill="none" stroke="lightgrey"/>
   <polygon fill="lightgrey" points="346.77,-755.11 336.21,-754.28 343.95,-761.51 346.77,-755.11" stroke="lightgrey"/>
  </g>
  <!-- 数论&#45;扩展欧几里得算法 -->
  <g class="node" id="node15">
   <title>
    数论-扩展欧几里得算法
   </title>
   <polygon fill="lightslategray" points="539.5,-756 381.5,-756 381.5,-720 539.5,-720 539.5,-756" stroke="lightgrey"/>
   <text fill="white" font-family="Microsoft YaHei" font-size="12.00" text-anchor="middle" x="460.5" y="-734.9">
    数论-扩展欧几里得算法(1)
   </text>
  </g>
  <!-- Codeforces&#45;&gt;数论&#45;扩展欧几里得算法 -->
  <g class="edge" id="edge14">
   <title>
    Codeforces-&gt;数论-扩展欧几里得算法
   </title>
   <path d="M460.5,-791.7C460.5,-783.98 460.5,-774.71 460.5,-766.11" fill="none" stroke="lightgrey"/>
   <polygon fill="lightgrey" points="464,-766.1 460.5,-756.1 457,-766.1 464,-766.1" stroke="lightgrey"/>
  </g>
  <!-- 动态规划&#45;树形DP -->
  <g class="node" id="node17">
   <title>
    动态规划-树形DP
   </title>
   <polygon fill="lightslategray" points="683.5,-756 557.5,-756 557.5,-720 683.5,-720 683.5,-756" stroke="lightgrey"/>
   <text fill="white" font-family="Microsoft YaHei" font-size="12.00" text-anchor="middle" x="620.5" y="-734.9">
    动态规划-树形DP(1)
   </text>
  </g>
  <!-- Codeforces&#45;&gt;动态规划&#45;树形DP -->
  <g class="edge" id="edge16">
   <title>
    Codeforces-&gt;动态规划-树形DP
   </title>
   <path d="M499.64,-791.88C521.51,-782.31 548.96,-770.3 572.16,-760.15" fill="none" stroke="lightgrey"/>
   <polygon fill="lightgrey" points="573.73,-763.28 581.49,-756.07 570.92,-756.87 573.73,-763.28" stroke="lightgrey"/>
  </g>
  <!-- 模拟题 -->
  <g class="node" id="node19">
   <title>
    模拟题
   </title>
   <polygon fill="lightslategray" points="790,-756 721,-756 721,-720 790,-720 790,-756" stroke="lightgrey"/>
   <text fill="white" font-family="Microsoft YaHei" font-size="12.00" text-anchor="middle" x="755.5" y="-734.9">
    模拟题(1)
   </text>
  </g>
  <!-- Codeforces&#45;&gt;模拟题 -->
  <g class="edge" id="edge18">
   <title>
    Codeforces-&gt;模拟题
   </title>
   <path d="M521.71,-795.7C568.58,-785.35 634.77,-770.38 692.5,-756 698.56,-754.49 704.93,-752.84 711.2,-751.19" fill="none" stroke="lightgrey"/>
   <polygon fill="lightgrey" points="712.14,-754.56 720.9,-748.6 710.34,-747.79 712.14,-754.56" stroke="lightgrey"/>
  </g>
  <!-- 1A -->
  <g class="node" id="node3">
   <title>
    1A
   </title>
   <g id="a_node3">
    <a target="_parent" xlink:href="https://codeforces.com/problemset/problem/1/A" xlink:title="1A. Theatre Square">
     <polygon fill="none" points="173.5,-684 41.5,-684 41.5,-648 173.5,-648 173.5,-684" stroke="greenyellow"/>
     <text font-family="Microsoft YaHei" font-size="12.00" text-anchor="middle" x="107.5" y="-662.9">
      1A. Theatre Square
     </text>
    </a>
   </g>
   <g transform="translate(165.5, -690.0) scale(0.3)">
    <circle cx="24" cy="24" fill="#4caf50" r="21"/>
    <polygon fill="#ccff90" points="34.6,14.6 21,28.2 15.4,22.6 12.6,25.4 21,33.8 37.4,17.4"/>
   </g>
  </g>
  <!-- 基础题&#45;&gt;1A -->
  <g class="edge" id="edge2">
   <title>
    基础题-&gt;1A
   </title>
   <path d="M156.43,-719.7C148.56,-711.22 138.94,-700.86 130.33,-691.58" fill="none" stroke="lightgrey"/>
   <polygon fill="lightgrey" points="132.75,-689.05 123.38,-684.1 127.62,-693.81 132.75,-689.05" stroke="lightgrey"/>
  </g>
  <!-- 4A -->
  <g class="node" id="node4">
   <title>
    4A
   </title>
   <g id="a_node4">
    <a target="_parent" xlink:href="https://codeforces.com/problemset/problem/4/A" xlink:title="4A. Watermelon">
     <polygon fill="none" points="164,-612 51,-612 51,-576 164,-576 164,-612" stroke="greenyellow"/>
     <text font-family="Microsoft YaHei" font-size="12.00" text-anchor="middle" x="107.5" y="-590.9">
      4A. Watermelon
     </text>
    </a>
   </g>
   <g transform="translate(156.0, -618.0) scale(0.3)">
    <circle cx="24" cy="24" fill="#4caf50" r="21"/>
    <polygon fill="#ccff90" points="34.6,14.6 21,28.2 15.4,22.6 12.6,25.4 21,33.8 37.4,17.4"/>
   </g>
  </g>
  <!-- 1A&#45;&gt;4A -->
  <g class="edge" id="edge3">
   <title>
    1A-&gt;4A
   </title>
   <path d="M107.5,-647.7C107.5,-639.98 107.5,-630.71 107.5,-622.11" fill="none" stroke="lightgrey"/>
   <polygon fill="lightgrey" points="111,-622.1 107.5,-612.1 104,-622.1 111,-622.1" stroke="lightgrey"/>
  </g>
  <!-- 5A -->
  <g class="node" id="node5">
   <title>
    5A
   </title>
   <g id="a_node5">
    <a target="_parent" xlink:href="https://codeforces.com/problemset/problem/5/A" xlink:title="5A. Chat Servers Outgoing Traffic">
     <polygon fill="none" points="215,-540 0,-540 0,-504 215,-504 215,-540" stroke="greenyellow"/>
     <text font-family="Microsoft YaHei" font-size="12.00" text-anchor="middle" x="107.5" y="-518.9">
      5A. Chat Servers Outgoing Traffic
     </text>
    </a>
   </g>
   <g transform="translate(207.0, -546.0) scale(0.3)">
    <circle cx="24" cy="24" fill="#4caf50" r="21"/>
    <polygon fill="#ccff90" points="34.6,14.6 21,28.2 15.4,22.6 12.6,25.4 21,33.8 37.4,17.4"/>
   </g>
  </g>
  <!-- 4A&#45;&gt;5A -->
  <g class="edge" id="edge4">
   <title>
    4A-&gt;5A
   </title>
   <path d="M107.5,-575.7C107.5,-567.98 107.5,-558.71 107.5,-550.11" fill="none" stroke="lightgrey"/>
   <polygon fill="lightgrey" points="111,-550.1 107.5,-540.1 104,-550.1 111,-550.1" stroke="lightgrey"/>
  </g>
  <!-- 6A -->
  <g class="node" id="node6">
   <title>
    6A
   </title>
   <g id="a_node6">
    <a target="_parent" xlink:href="https://codeforces.com/problemset/problem/6/A" xlink:title="6A. Triangle">
     <polygon fill="none" points="150.5,-468 64.5,-468 64.5,-432 150.5,-432 150.5,-468" stroke="greenyellow"/>
     <text font-family="Microsoft YaHei" font-size="12.00" text-anchor="middle" x="107.5" y="-446.9">
      6A. Triangle
     </text>
    </a>
   </g>
   <g transform="translate(142.5, -474.0) scale(0.3)">
    <circle cx="24" cy="24" fill="#4caf50" r="21"/>
    <polygon fill="#ccff90" points="34.6,14.6 21,28.2 15.4,22.6 12.6,25.4 21,33.8 37.4,17.4"/>
   </g>
  </g>
  <!-- 5A&#45;&gt;6A -->
  <g class="edge" id="edge5">
   <title>
    5A-&gt;6A
   </title>
   <path d="M107.5,-503.7C107.5,-495.98 107.5,-486.71 107.5,-478.11" fill="none" stroke="lightgrey"/>
   <polygon fill="lightgrey" points="111,-478.1 107.5,-468.1 104,-478.1 111,-478.1" stroke="lightgrey"/>
  </g>
  <!-- 750A -->
  <g class="node" id="node7">
   <title>
    750A
   </title>
   <g id="a_node7">
    <a target="_parent" xlink:href="https://codeforces.com/problemset/problem/750/A" xlink:title="750A. New Year and Hurry">
     <polygon fill="none" points="194.5,-396 20.5,-396 20.5,-360 194.5,-360 194.5,-396" stroke="greenyellow"/>
     <text font-family="Microsoft YaHei" font-size="12.00" text-anchor="middle" x="107.5" y="-374.9">
      750A. New Year and Hurry
     </text>
    </a>
   </g>
   <g transform="translate(186.5, -402.0) scale(0.3)">
    <circle cx="24" cy="24" fill="#4caf50" r="21"/>
    <polygon fill="#ccff90" points="34.6,14.6 21,28.2 15.4,22.6 12.6,25.4 21,33.8 37.4,17.4"/>
   </g>
  </g>
  <!-- 6A&#45;&gt;750A -->
  <g class="edge" id="edge6">
   <title>
    6A-&gt;750A
   </title>
   <path d="M107.5,-431.7C107.5,-423.98 107.5,-414.71 107.5,-406.11" fill="none" stroke="lightgrey"/>
   <polygon fill="lightgrey" points="111,-406.1 107.5,-396.1 104,-406.1 111,-406.1" stroke="lightgrey"/>
  </g>
  <!-- 784E -->
  <g class="node" id="node8">
   <title>
    784E
   </title>
   <g id="a_node8">
    <a target="_parent" xlink:href="https://codeforces.com/problemset/problem/784/E" xlink:title="784E. Twisted Circuit">
     <polygon fill="none" points="177,-324 38,-324 38,-288 177,-288 177,-324" stroke="orange"/>
     <text font-family="Microsoft YaHei" font-size="12.00" text-anchor="middle" x="107.5" y="-302.9">
      784E. Twisted Circuit
     </text>
    </a>
   </g>
   <g transform="translate(169.0, -330.0) scale(0.3)">
    <circle cx="24" cy="24" fill="#4caf50" r="21"/>
    <polygon fill="#ccff90" points="34.6,14.6 21,28.2 15.4,22.6 12.6,25.4 21,33.8 37.4,17.4"/>
   </g>
  </g>
  <!-- 750A&#45;&gt;784E -->
  <g class="edge" id="edge7">
   <title>
    750A-&gt;784E
   </title>
   <path d="M107.5,-359.7C107.5,-351.98 107.5,-342.71 107.5,-334.11" fill="none" stroke="lightgrey"/>
   <polygon fill="lightgrey" points="111,-334.1 107.5,-324.1 104,-334.1 111,-334.1" stroke="lightgrey"/>
  </g>
  <!-- 785A -->
  <g class="node" id="node9">
   <title>
    785A
   </title>
   <g id="a_node9">
    <a target="_parent" xlink:href="https://codeforces.com/problemset/problem/785/A" xlink:title="785A. Anton and Polyhedrons">
     <polygon fill="none" points="203.5,-252 11.5,-252 11.5,-216 203.5,-216 203.5,-252" stroke="greenyellow"/>
     <text font-family="Microsoft YaHei" font-size="12.00" text-anchor="middle" x="107.5" y="-230.9">
      785A. Anton and Polyhedrons
     </text>
    </a>
   </g>
   <g transform="translate(195.5, -258.0) scale(0.3)">
    <circle cx="24" cy="24" fill="#4caf50" r="21"/>
    <polygon fill="#ccff90" points="34.6,14.6 21,28.2 15.4,22.6 12.6,25.4 21,33.8 37.4,17.4"/>
   </g>
  </g>
  <!-- 784E&#45;&gt;785A -->
  <g class="edge" id="edge8">
   <title>
    784E-&gt;785A
   </title>
   <path d="M107.5,-287.7C107.5,-279.98 107.5,-270.71 107.5,-262.11" fill="none" stroke="lightgrey"/>
   <polygon fill="lightgrey" points="111,-262.1 107.5,-252.1 104,-262.1 111,-262.1" stroke="lightgrey"/>
  </g>
  <!-- 802M -->
  <g class="node" id="node10">
   <title>
    802M
   </title>
   <g id="a_node10">
    <a target="_parent" xlink:href="https://codeforces.com/problemset/problem/802/M" xlink:title="802M. April Fools' Problem (easy)">
     <polygon fill="none" points="215,-180 0,-180 0,-144 215,-144 215,-180" stroke="orange"/>
     <text font-family="Microsoft YaHei" font-size="12.00" text-anchor="middle" x="107.5" y="-158.9">
      802M. April Fools' Problem (easy)
     </text>
    </a>
   </g>
   <g transform="translate(207.0, -186.0) scale(0.3)">
    <circle cx="24" cy="24" fill="#4caf50" r="21"/>
    <polygon fill="#ccff90" points="34.6,14.6 21,28.2 15.4,22.6 12.6,25.4 21,33.8 37.4,17.4"/>
   </g>
  </g>
  <!-- 785A&#45;&gt;802M -->
  <g class="edge" id="edge9">
   <title>
    785A-&gt;802M
   </title>
   <path d="M107.5,-215.7C107.5,-207.98 107.5,-198.71 107.5,-190.11" fill="none" stroke="lightgrey"/>
   <polygon fill="lightgrey" points="111,-190.1 107.5,-180.1 104,-190.1 111,-190.1" stroke="lightgrey"/>
  </g>
  <!-- 855A -->
  <g class="node" id="node11">
   <title>
    855A
   </title>
   <g id="a_node11">
    <a target="_parent" xlink:href="https://codeforces.com/problemset/problem/855/A" xlink:title="855A. Tom Riddle's Diary">
     <polygon fill="none" points="189.5,-108 25.5,-108 25.5,-72 189.5,-72 189.5,-108" stroke="greenyellow"/>
     <text font-family="Microsoft YaHei" font-size="12.00" text-anchor="middle" x="107.5" y="-86.9">
      855A. Tom Riddle's Diary
     </text>
    </a>
   </g>
   <g transform="translate(181.5, -114.0) scale(0.3)">
    <circle cx="24" cy="24" fill="#4caf50" r="21"/>
    <polygon fill="#ccff90" points="34.6,14.6 21,28.2 15.4,22.6 12.6,25.4 21,33.8 37.4,17.4"/>
   </g>
  </g>
  <!-- 802M&#45;&gt;855A -->
  <g class="edge" id="edge10">
   <title>
    802M-&gt;855A
   </title>
   <path d="M107.5,-143.7C107.5,-135.98 107.5,-126.71 107.5,-118.11" fill="none" stroke="lightgrey"/>
   <polygon fill="lightgrey" points="111,-118.1 107.5,-108.1 104,-118.1 111,-118.1" stroke="lightgrey"/>
  </g>
  <!-- 1157B -->
  <g class="node" id="node12">
   <title>
    1157B
   </title>
   <g id="a_node12">
    <a target="_parent" xlink:href="https://codeforces.com/problemset/problem/1157/B" xlink:title="1157B. Long Number">
     <polygon fill="none" points="179.5,-36 35.5,-36 35.5,0 179.5,0 179.5,-36" stroke="orange"/>
     <text font-family="Microsoft YaHei" font-size="12.00" text-anchor="middle" x="107.5" y="-14.9">
      1157B. Long Number
     </text>
    </a>
   </g>
   <g transform="translate(171.5, -42.0) scale(0.3)">
    <circle cx="24" cy="24" fill="#4caf50" r="21"/>
    <polygon fill="#ccff90" points="34.6,14.6 21,28.2 15.4,22.6 12.6,25.4 21,33.8 37.4,17.4"/>
   </g>
  </g>
  <!-- 855A&#45;&gt;1157B -->
  <g class="edge" id="edge11">
   <title>
    855A-&gt;1157B
   </title>
   <path d="M107.5,-71.7C107.5,-63.98 107.5,-54.71 107.5,-46.11" fill="none" stroke="lightgrey"/>
   <polygon fill="lightgrey" points="111,-46.1 107.5,-36.1 104,-46.1 111,-46.1" stroke="lightgrey"/>
  </g>
  <!-- 409H -->
  <g class="node" id="node14">
   <title>
    409H
   </title>
   <g id="a_node14">
    <a target="_parent" xlink:href="https://codeforces.com/problemset/problem/409/H" xlink:title="409H. A + B Strikes Back">
     <polygon fill="none" points="359,-684 192,-684 192,-648 359,-648 359,-684" stroke="orange"/>
     <text font-family="Microsoft YaHei" font-size="12.00" text-anchor="middle" x="275.5" y="-662.9">
      409H. A + B Strikes Back
     </text>
    </a>
   </g>
   <g transform="translate(351.0, -690.0) scale(0.3)">
    <circle cx="24" cy="24" fill="#4caf50" r="21"/>
    <polygon fill="#ccff90" points="34.6,14.6 21,28.2 15.4,22.6 12.6,25.4 21,33.8 37.4,17.4"/>
   </g>
  </g>
  <!-- Maths&#45;&gt;409H -->
  <g class="edge" id="edge13">
   <title>
    Maths-&gt;409H
   </title>
   <path d="M295.07,-719.7C292.14,-711.81 288.61,-702.3 285.36,-693.55" fill="none" stroke="lightgrey"/>
   <polygon fill="lightgrey" points="288.62,-692.26 281.85,-684.1 282.05,-694.7 288.62,-692.26" stroke="lightgrey"/>
  </g>
  <!-- 1478D -->
  <g class="node" id="node16">
   <title>
    1478D
   </title>
   <g id="a_node16">
    <a target="_parent" xlink:href="https://codeforces.com/problemset/problem/1477/A" xlink:title="1478D. Nezzar and Board">
     <polygon fill="none" points="547.5,-684 377.5,-684 377.5,-648 547.5,-648 547.5,-684" stroke="orange"/>
     <text font-family="Microsoft YaHei" font-size="12.00" text-anchor="middle" x="462.5" y="-662.9">
      1478D. Nezzar and Board
     </text>
    </a>
   </g>
  </g>
  <!-- 数论&#45;扩展欧几里得算法&#45;&gt;1478D -->
  <g class="edge" id="edge15">
   <title>
    数论-扩展欧几里得算法-&gt;1478D
   </title>
   <path d="M460.99,-719.7C461.21,-711.98 461.48,-702.71 461.73,-694.11" fill="none" stroke="lightgrey"/>
   <polygon fill="lightgrey" points="465.22,-694.2 462.01,-684.1 458.23,-694 465.22,-694.2" stroke="lightgrey"/>
  </g>
  <!-- 1156D -->
  <g class="node" id="node18">
   <title>
    1156D
   </title>
   <g id="a_node18">
    <a target="_parent" xlink:href="https://codeforces.com/problemset/problem/1156/D" xlink:title="1156D. 0-1-Tree">
     <polygon fill="none" points="675.5,-684 565.5,-684 565.5,-648 675.5,-648 675.5,-684" stroke="red"/>
     <text font-family="Microsoft YaHei" font-size="12.00" text-anchor="middle" x="620.5" y="-662.9">
      1156D. 0-1-Tree
     </text>
    </a>
   </g>
  </g>
  <!-- 动态规划&#45;树形DP&#45;&gt;1156D -->
  <g class="edge" id="edge17">
   <title>
    动态规划-树形DP-&gt;1156D
   </title>
   <path d="M620.5,-719.7C620.5,-711.98 620.5,-702.71 620.5,-694.11" fill="none" stroke="lightgrey"/>
   <polygon fill="lightgrey" points="624,-694.1 620.5,-684.1 617,-694.1 624,-694.1" stroke="lightgrey"/>
  </g>
  <!-- 1493B -->
  <g class="node" id="node20">
   <title>
    1493B
   </title>
   <g id="a_node20">
    <a target="_parent" xlink:href="https://codeforces.com/problemset/problem/1493/B" xlink:title="1493B. Planet Lapituletti">
     <polygon fill="none" points="857,-684 694,-684 694,-648 857,-648 857,-684" stroke="orange"/>
     <text font-family="Microsoft YaHei" font-size="12.00" text-anchor="middle" x="775.5" y="-662.9">
      1493B. Planet Lapituletti
     </text>
    </a>
   </g>
  </g>
  <!-- 模拟题&#45;&gt;1493B -->
  <g class="edge" id="edge19">
   <title>
    模拟题-&gt;1493B
   </title>
   <path d="M760.44,-719.7C762.67,-711.9 765.35,-702.51 767.83,-693.83" fill="none" stroke="lightgrey"/>
   <polygon fill="lightgrey" points="771.23,-694.68 770.61,-684.1 764.5,-692.76 771.23,-694.68" stroke="lightgrey"/>
  </g>
  <g class="key">
   <defs>
    <filter height="1.2" id="solid" width="1.2" x="-0.1" y="-0.1">
     <feFlood flood-color="#ccff90" result="bg"/>
     <feMerge>
      <feMergeNode in="bg"/>
      <feMergeNode in="SourceGraphic"/>
     </feMerge>
    </filter>
   </defs>
   <text filter="url(#solid)" font-family="Microsoft YaHei" font-size="10.00" text-anchor="middle" x="775.5" y="-643.0">
    时间模拟
   </text>
  </g>
 </g>
</svg>