<?xml version="1.0" encoding="utf-8"?>
<!DOCTYPE svg PUBLIC "-//W3C//DTD SVG 1.1//EN" "http://www.w3.org/Graphics/SVG/1.1/DTD/svg11.dtd">
<!-- Generated by graphviz version 2.43.0 (0)
 -->
<!-- Title: stones Pages: 1 -->
<svg height="814pt" viewBox="0.00 0.00 947.5 814.0" width="948pt" xmlns="http://www.w3.org/2000/svg" xmlns:xlink="http://www.w3.org/1999/xlink">
 <g class="graph" id="graph0" transform="scale(1 1) rotate(0) translate(4 760)">
  <title>
   stones
  </title>
  <polygon fill="white" points="-4,4 -4,-760 893.5,-760 893.5,4 -4,4" stroke="transparent"/>
  <!-- Leetcode&#45;链表 -->
  <g class="node" id="node1">
   <title>
    Leetcode-链表
   </title>
   <g id="a_node1">
    <a target="_parent" xlink:href="https://leetcode-cn.com/tag/linked-list" xlink:title="Leetcode-链表(36)">
     <polygon fill="orangered" points="509,-756 368,-756 368,-720 509,-720 509,-756" stroke="lightgrey"/>
     <text fill="white" font-family="Microsoft YaHei" font-size="14.00" text-anchor="middle" x="438.5" y="-734.3">
      Leetcode-链表(36)
     </text>
    </a>
   </g>
  </g>
  <!-- 链表第一题 -->
  <g class="node" id="node2">
   <title>
    链表第一题
   </title>
   <polygon fill="lightslategray" points="135,-684 42,-684 42,-648 135,-648 135,-684" stroke="lightgrey"/>
   <text fill="white" font-family="Microsoft YaHei" font-size="12.00" text-anchor="middle" x="88.5" y="-662.9">
    链表第一题(1)
   </text>
  </g>
  <!-- Leetcode&#45;链表&#45;&gt;链表第一题 -->
  <g class="edge" id="edge1">
   <title>
    Leetcode-链表-&gt;链表第一题
   </title>
   <path d="M367.82,-726.17C308.64,-716.61 222.12,-701.5 147.5,-684 146.61,-683.79 145.72,-683.58 144.83,-683.36" fill="none" stroke="lightgrey"/>
   <polygon fill="lightgrey" points="145.64,-679.96 135.08,-680.89 143.92,-686.74 145.64,-679.96" stroke="lightgrey"/>
  </g>
  <!-- 反转链表 -->
  <g class="node" id="node4">
   <title>
    反转链表
   </title>
   <polygon fill="lightslategray" points="238,-684 157,-684 157,-648 238,-648 238,-684" stroke="lightgrey"/>
   <text fill="white" font-family="Microsoft YaHei" font-size="12.00" text-anchor="middle" x="197.5" y="-662.9">
    反转链表(6)
   </text>
  </g>
  <!-- Leetcode&#45;链表&#45;&gt;反转链表 -->
  <g class="edge" id="edge3">
   <title>
    Leetcode-链表-&gt;反转链表
   </title>
   <path d="M379.85,-719.97C339.56,-708.26 286.62,-692.89 248.16,-681.72" fill="none" stroke="lightgrey"/>
   <polygon fill="lightgrey" points="248.8,-678.26 238.22,-678.83 246.85,-684.98 248.8,-678.26" stroke="lightgrey"/>
  </g>
  <!-- 删除链表 -->
  <g class="node" id="node11">
   <title>
    删除链表
   </title>
   <polygon fill="lightslategray" points="362,-684 281,-684 281,-648 362,-648 362,-684" stroke="lightgrey"/>
   <text fill="white" font-family="Microsoft YaHei" font-size="12.00" text-anchor="middle" x="321.5" y="-662.9">
    删除链表(5)
   </text>
  </g>
  <!-- Leetcode&#45;链表&#45;&gt;删除链表 -->
  <g class="edge" id="edge10">
   <title>
    Leetcode-链表-&gt;删除链表
   </title>
   <path d="M409.88,-719.88C394.58,-710.72 375.56,-699.34 359.08,-689.48" fill="none" stroke="lightgrey"/>
   <polygon fill="lightgrey" points="360.61,-686.32 350.23,-684.19 357.02,-692.33 360.61,-686.32" stroke="lightgrey"/>
  </g>
  <!-- 构建新链表 -->
  <g class="node" id="node17">
   <title>
    构建新链表
   </title>
   <polygon fill="lightslategray" points="485,-684 392,-684 392,-648 485,-648 485,-684" stroke="lightgrey"/>
   <text fill="white" font-family="Microsoft YaHei" font-size="12.00" text-anchor="middle" x="438.5" y="-662.9">
    构建新链表(9)
   </text>
  </g>
  <!-- Leetcode&#45;链表&#45;&gt;构建新链表 -->
  <g class="edge" id="edge16">
   <title>
    Leetcode-链表-&gt;构建新链表
   </title>
   <path d="M438.5,-719.7C438.5,-711.98 438.5,-702.71 438.5,-694.11" fill="none" stroke="lightgrey"/>
   <polygon fill="lightgrey" points="442,-694.1 438.5,-684.1 435,-694.1 442,-694.1" stroke="lightgrey"/>
  </g>
  <!-- 快慢指针 -->
  <g class="node" id="node27">
   <title>
    快慢指针
   </title>
   <polygon fill="lightslategray" points="584,-684 503,-684 503,-648 584,-648 584,-684" stroke="lightgrey"/>
   <text fill="white" font-family="Microsoft YaHei" font-size="12.00" text-anchor="middle" x="543.5" y="-662.9">
    快慢指针(8)
   </text>
  </g>
  <!-- Leetcode&#45;链表&#45;&gt;快慢指针 -->
  <g class="edge" id="edge26">
   <title>
    Leetcode-链表-&gt;快慢指针
   </title>
   <path d="M464.19,-719.88C477.79,-710.81 494.67,-699.55 509.36,-689.76" fill="none" stroke="lightgrey"/>
   <polygon fill="lightgrey" points="511.34,-692.65 517.72,-684.19 507.45,-686.82 511.34,-692.65" stroke="lightgrey"/>
  </g>
  <!-- 链表和其他算法 -->
  <g class="node" id="node36">
   <title>
    链表和其他算法
   </title>
   <polygon fill="lightslategray" points="719,-684 602,-684 602,-648 719,-648 719,-684" stroke="lightgrey"/>
   <text fill="white" font-family="Microsoft YaHei" font-size="12.00" text-anchor="middle" x="660.5" y="-662.9">
    链表和其他算法(7)
   </text>
  </g>
  <!-- Leetcode&#45;链表&#45;&gt;链表和其他算法 -->
  <g class="edge" id="edge35">
   <title>
    Leetcode-链表-&gt;链表和其他算法
   </title>
   <path d="M492.52,-719.97C523.95,-710.06 563.73,-697.51 596.69,-687.12" fill="none" stroke="lightgrey"/>
   <polygon fill="lightgrey" points="597.75,-690.46 606.23,-684.11 595.64,-683.78 597.75,-690.46" stroke="lightgrey"/>
  </g>
  <!-- 设计题 -->
  <g class="node" id="node44">
   <title>
    设计题
   </title>
   <polygon fill="lightslategray" points="806,-684 737,-684 737,-648 806,-648 806,-684" stroke="lightgrey"/>
   <text fill="white" font-family="Microsoft YaHei" font-size="12.00" text-anchor="middle" x="771.5" y="-662.9">
    设计题(0)
   </text>
  </g>
  <!-- Leetcode&#45;链表&#45;&gt;设计题 -->
  <g class="edge" id="edge43">
   <title>
    Leetcode-链表-&gt;设计题
   </title>
   <path d="M509.12,-727.82C565.86,-719.59 647.55,-705.81 726.96,-683.87" fill="none" stroke="lightgrey"/>
   <polygon fill="lightgrey" points="727.95,-687.22 736.64,-681.15 726.06,-680.48 727.95,-687.22" stroke="lightgrey"/>
  </g>
  <!-- 707 -->
  <g class="node" id="node3">
   <title>
    707
   </title>
   <g id="a_node3">
    <a target="_parent" xlink:href="https://leetcode-cn.com/problems/design-linked-list" xlink:title="707. 设计链表">
     <polygon fill="none" points="113,-612 18,-612 18,-576 113,-576 113,-612" stroke="orange"/>
     <text font-family="Microsoft YaHei" font-size="12.00" text-anchor="middle" x="65.5" y="-590.9">
      707. 设计链表
     </text>
    </a>
   </g>
  </g>
  <!-- 链表第一题&#45;&gt;707 -->
  <g class="edge" id="edge2">
   <title>
    链表第一题-&gt;707
   </title>
   <path d="M82.81,-647.7C80.25,-639.9 77.17,-630.51 74.32,-621.83" fill="none" stroke="lightgrey"/>
   <polygon fill="lightgrey" points="77.57,-620.51 71.12,-612.1 70.92,-622.7 77.57,-620.51" stroke="lightgrey"/>
  </g>
  <!-- 234 -->
  <g class="node" id="node5">
   <title>
    234
   </title>
   <g id="a_node5">
    <a target="_parent" xlink:href="https://leetcode-cn.com/problems/palindrome-linked-list" xlink:title="234. 回文链表">
     <polygon fill="none" points="226,-612 131,-612 131,-576 226,-576 226,-612" stroke="greenyellow"/>
     <text font-family="Microsoft YaHei" font-size="12.00" text-anchor="middle" x="178.5" y="-590.9">
      234. 回文链表
     </text>
    </a>
   </g>
  </g>
  <!-- 反转链表&#45;&gt;234 -->
  <g class="edge" id="edge4">
   <title>
    反转链表-&gt;234
   </title>
   <path d="M192.8,-647.7C190.69,-639.9 188.14,-630.51 185.78,-621.83" fill="none" stroke="lightgrey"/>
   <polygon fill="lightgrey" points="189.14,-620.84 183.14,-612.1 182.38,-622.67 189.14,-620.84" stroke="lightgrey"/>
  </g>
  <!-- 206 -->
  <g class="node" id="node6">
   <title>
    206
   </title>
   <g id="a_node6">
    <a target="_parent" xlink:href="https://leetcode-cn.com/problems/reverse-linked-list" xlink:title="206. 反转链表">
     <polygon fill="none" points="182,-540 87,-540 87,-504 182,-504 182,-540" stroke="greenyellow"/>
     <text font-family="Microsoft YaHei" font-size="12.00" text-anchor="middle" x="134.5" y="-518.9">
      206. 反转链表
     </text>
    </a>
   </g>
  </g>
  <!-- 234&#45;&gt;206 -->
  <g class="edge" id="edge5">
   <title>
    234-&gt;206
   </title>
   <path d="M167.62,-575.7C162.51,-567.56 156.3,-557.69 150.66,-548.7" fill="none" stroke="lightgrey"/>
   <polygon fill="lightgrey" points="153.54,-546.71 145.25,-540.1 147.61,-550.43 153.54,-546.71" stroke="lightgrey"/>
  </g>
  <!-- 24 -->
  <g class="node" id="node7">
   <title>
    24
   </title>
   <g id="a_node7">
    <a target="_parent" xlink:href="https://leetcode-cn.com/problems/swap-nodes-in-pairs" xlink:title="24. 两两交换链表中的节点">
     <polygon fill="none" points="159,-468 0,-468 0,-432 159,-432 159,-468" stroke="orange"/>
     <text font-family="Microsoft YaHei" font-size="12.00" text-anchor="middle" x="79.5" y="-446.9">
      24. 两两交换链表中的节点
     </text>
    </a>
   </g>
  </g>
  <!-- 206&#45;&gt;24 -->
  <g class="edge" id="edge6">
   <title>
    206-&gt;24
   </title>
   <path d="M120.9,-503.7C114.38,-495.39 106.43,-485.28 99.25,-476.14" fill="none" stroke="lightgrey"/>
   <polygon fill="lightgrey" points="101.87,-473.81 92.94,-468.1 96.37,-478.13 101.87,-473.81" stroke="lightgrey"/>
  </g>
  <!-- 25 -->
  <g class="node" id="node8">
   <title>
    25
   </title>
   <g id="a_node8">
    <a target="_parent" xlink:href="https://leetcode-cn.com/problems/reverse-nodes-in-k-group" xlink:title="25. K 个一组翻转链表">
     <polygon fill="none" points="146.5,-396 12.5,-396 12.5,-360 146.5,-360 146.5,-396" stroke="red"/>
     <text font-family="Microsoft YaHei" font-size="12.00" text-anchor="middle" x="79.5" y="-374.9">
      25. K 个一组翻转链表
     </text>
    </a>
   </g>
  </g>
  <!-- 24&#45;&gt;25 -->
  <g class="edge" id="edge7">
   <title>
    24-&gt;25
   </title>
   <path d="M79.5,-431.7C79.5,-423.98 79.5,-414.71 79.5,-406.11" fill="none" stroke="lightgrey"/>
   <polygon fill="lightgrey" points="83,-406.1 79.5,-396.1 76,-406.1 83,-406.1" stroke="lightgrey"/>
  </g>
  <!-- 92 -->
  <g class="node" id="node9">
   <title>
    92
   </title>
   <g id="a_node9">
    <a target="_parent" xlink:href="https://leetcode-cn.com/problems/reverse-linked-list-ii" xlink:title="92. 反转链表 II">
     <polygon fill="none" points="127.5,-324 29.5,-324 29.5,-288 127.5,-288 127.5,-324" stroke="orange"/>
     <text font-family="Microsoft YaHei" font-size="12.00" text-anchor="middle" x="78.5" y="-302.9">
      92. 反转链表 II
     </text>
    </a>
   </g>
  </g>
  <!-- 25&#45;&gt;92 -->
  <g class="edge" id="edge8">
   <title>
    25-&gt;92
   </title>
   <path d="M79.25,-359.7C79.14,-351.98 79.01,-342.71 78.89,-334.11" fill="none" stroke="lightgrey"/>
   <polygon fill="lightgrey" points="82.39,-334.05 78.74,-324.1 75.39,-334.15 82.39,-334.05" stroke="lightgrey"/>
  </g>
  <!-- 143 -->
  <g class="node" id="node10">
   <title>
    143
   </title>
   <g id="a_node10">
    <a target="_parent" xlink:href="https://leetcode-cn.com/problems/reorder-list" xlink:title="143. 重排链表">
     <polygon fill="none" points="126,-252 31,-252 31,-216 126,-216 126,-252" stroke="orange"/>
     <text font-family="Microsoft YaHei" font-size="12.00" text-anchor="middle" x="78.5" y="-230.9">
      143. 重排链表
     </text>
    </a>
   </g>
  </g>
  <!-- 92&#45;&gt;143 -->
  <g class="edge" id="edge9">
   <title>
    92-&gt;143
   </title>
   <path d="M78.5,-287.7C78.5,-279.98 78.5,-270.71 78.5,-262.11" fill="none" stroke="lightgrey"/>
   <polygon fill="lightgrey" points="82,-262.1 78.5,-252.1 75,-262.1 82,-262.1" stroke="lightgrey"/>
  </g>
  <!-- 237 -->
  <g class="node" id="node12">
   <title>
    237
   </title>
   <g id="a_node12">
    <a target="_parent" xlink:href="https://leetcode-cn.com/problems/delete-node-in-a-linked-list" xlink:title="237. 删除链表中的节点">
     <polygon fill="none" points="387,-612 244,-612 244,-576 387,-576 387,-612" stroke="greenyellow"/>
     <text font-family="Microsoft YaHei" font-size="12.00" text-anchor="middle" x="315.5" y="-590.9">
      237. 删除链表中的节点
     </text>
    </a>
   </g>
  </g>
  <!-- 删除链表&#45;&gt;237 -->
  <g class="edge" id="edge11">
   <title>
    删除链表-&gt;237
   </title>
   <path d="M320.02,-647.7C319.36,-639.98 318.56,-630.71 317.82,-622.11" fill="none" stroke="lightgrey"/>
   <polygon fill="lightgrey" points="321.31,-621.77 316.97,-612.1 314.33,-622.37 321.31,-621.77" stroke="lightgrey"/>
  </g>
  <!-- 203 -->
  <g class="node" id="node13">
   <title>
    203
   </title>
   <g id="a_node13">
    <a target="_parent" xlink:href="https://leetcode-cn.com/problems/remove-linked-list-elements" xlink:title="203. 移除链表元素">
     <polygon fill="none" points="351,-540 232,-540 232,-504 351,-504 351,-540" stroke="greenyellow"/>
     <text font-family="Microsoft YaHei" font-size="12.00" text-anchor="middle" x="291.5" y="-518.9">
      203. 移除链表元素
     </text>
    </a>
   </g>
  </g>
  <!-- 237&#45;&gt;203 -->
  <g class="edge" id="edge12">
   <title>
    237-&gt;203
   </title>
   <path d="M309.57,-575.7C306.89,-567.9 303.67,-558.51 300.7,-549.83" fill="none" stroke="lightgrey"/>
   <polygon fill="lightgrey" points="303.92,-548.43 297.36,-540.1 297.3,-550.7 303.92,-548.43" stroke="lightgrey"/>
  </g>
  <!-- 83 -->
  <g class="node" id="node14">
   <title>
    83
   </title>
   <g id="a_node14">
    <a target="_parent" xlink:href="https://leetcode-cn.com/problems/remove-duplicates-from-sorted-list" xlink:title="83. 删除排序链表中的重复元素">
     <polygon fill="none" points="360,-468 177,-468 177,-432 360,-432 360,-468" stroke="greenyellow"/>
     <text font-family="Microsoft YaHei" font-size="12.00" text-anchor="middle" x="268.5" y="-446.9">
      83. 删除排序链表中的重复元素
     </text>
    </a>
   </g>
  </g>
  <!-- 203&#45;&gt;83 -->
  <g class="edge" id="edge13">
   <title>
    203-&gt;83
   </title>
   <path d="M285.81,-503.7C283.25,-495.9 280.17,-486.51 277.32,-477.83" fill="none" stroke="lightgrey"/>
   <polygon fill="lightgrey" points="280.57,-476.51 274.12,-468.1 273.92,-478.7 280.57,-476.51" stroke="lightgrey"/>
  </g>
  <!-- 82 -->
  <g class="node" id="node15">
   <title>
    82
   </title>
   <g id="a_node15">
    <a target="_parent" xlink:href="https://leetcode-cn.com/problems/remove-duplicates-from-sorted-list-ii" xlink:title="82. 删除排序链表中的重复元素 II">
     <polygon fill="none" points="365.5,-396 171.5,-396 171.5,-360 365.5,-360 365.5,-396" stroke="orange"/>
     <text font-family="Microsoft YaHei" font-size="12.00" text-anchor="middle" x="268.5" y="-374.9">
      82. 删除排序链表中的重复元素 II
     </text>
    </a>
   </g>
  </g>
  <!-- 83&#45;&gt;82 -->
  <g class="edge" id="edge14">
   <title>
    83-&gt;82
   </title>
   <path d="M268.5,-431.7C268.5,-423.98 268.5,-414.71 268.5,-406.11" fill="none" stroke="lightgrey"/>
   <polygon fill="lightgrey" points="272,-406.1 268.5,-396.1 265,-406.1 272,-406.1" stroke="lightgrey"/>
  </g>
  <!-- 1171 -->
  <g class="node" id="node16">
   <title>
    1171
   </title>
   <g id="a_node16">
    <a target="_parent" xlink:href="https://leetcode-cn.com/problems/remove-zero-sum-consecutive-nodes-from-linked-list" xlink:title="1171. 从链表中删去总和值为零的连续节点">
     <polygon fill="none" points="391.5,-324 145.5,-324 145.5,-288 391.5,-288 391.5,-324" stroke="orange"/>
     <text font-family="Microsoft YaHei" font-size="12.00" text-anchor="middle" x="268.5" y="-302.9">
      1171. 从链表中删去总和值为零的连续节点
     </text>
    </a>
   </g>
  </g>
  <!-- 82&#45;&gt;1171 -->
  <g class="edge" id="edge15">
   <title>
    82-&gt;1171
   </title>
   <path d="M268.5,-359.7C268.5,-351.98 268.5,-342.71 268.5,-334.11" fill="none" stroke="lightgrey"/>
   <polygon fill="lightgrey" points="272,-334.1 268.5,-324.1 265,-334.1 272,-334.1" stroke="lightgrey"/>
  </g>
  <!-- 2 -->
  <g class="node" id="node18">
   <title>
    2
   </title>
   <g id="a_node18">
    <a target="_parent" xlink:href="https://leetcode-cn.com/problems/add-two-numbers" xlink:title="2. 两数相加">
     <polygon fill="none" points="485.5,-612 405.5,-612 405.5,-576 485.5,-576 485.5,-612" stroke="orange"/>
     <text font-family="Microsoft YaHei" font-size="12.00" text-anchor="middle" x="445.5" y="-590.9">
      2. 两数相加
     </text>
    </a>
   </g>
  </g>
  <!-- 构建新链表&#45;&gt;2 -->
  <g class="edge" id="edge17">
   <title>
    构建新链表-&gt;2
   </title>
   <path d="M440.23,-647.7C441,-639.98 441.93,-630.71 442.79,-622.11" fill="none" stroke="lightgrey"/>
   <polygon fill="lightgrey" points="446.28,-622.4 443.79,-612.1 439.31,-621.71 446.28,-622.4" stroke="lightgrey"/>
  </g>
  <!-- 445 -->
  <g class="node" id="node19">
   <title>
    445
   </title>
   <g id="a_node19">
    <a target="_parent" xlink:href="https://leetcode-cn.com/problems/add-two-numbers-ii" xlink:title="445. 两数相加 II">
     <polygon fill="none" points="498.5,-540 392.5,-540 392.5,-504 498.5,-504 498.5,-540" stroke="orange"/>
     <text font-family="Microsoft YaHei" font-size="12.00" text-anchor="middle" x="445.5" y="-518.9">
      445. 两数相加 II
     </text>
    </a>
   </g>
  </g>
  <!-- 2&#45;&gt;445 -->
  <g class="edge" id="edge18">
   <title>
    2-&gt;445
   </title>
   <path d="M445.5,-575.7C445.5,-567.98 445.5,-558.71 445.5,-550.11" fill="none" stroke="lightgrey"/>
   <polygon fill="lightgrey" points="449,-550.1 445.5,-540.1 442,-550.1 449,-550.1" stroke="lightgrey"/>
  </g>
  <!-- 430 -->
  <g class="node" id="node20">
   <title>
    430
   </title>
   <g id="a_node20">
    <a target="_parent" xlink:href="https://leetcode-cn.com/problems/flatten-a-multilevel-doubly-linked-list" xlink:title="430. 扁平化多级双向链表">
     <polygon fill="none" points="533,-468 378,-468 378,-432 533,-432 533,-468" stroke="orange"/>
     <text font-family="Microsoft YaHei" font-size="12.00" text-anchor="middle" x="455.5" y="-446.9">
      430. 扁平化多级双向链表
     </text>
    </a>
   </g>
  </g>
  <!-- 445&#45;&gt;430 -->
  <g class="edge" id="edge19">
   <title>
    445-&gt;430
   </title>
   <path d="M447.97,-503.7C449.07,-495.98 450.4,-486.71 451.63,-478.11" fill="none" stroke="lightgrey"/>
   <polygon fill="lightgrey" points="455.11,-478.5 453.06,-468.1 448.18,-477.51 455.11,-478.5" stroke="lightgrey"/>
  </g>
  <!-- 1669 -->
  <g class="node" id="node21">
   <title>
    1669
   </title>
   <g id="a_node21">
    <a target="_parent" xlink:href="https://leetcode-cn.com/problems/merge-in-between-linked-lists" xlink:title="1669. 合并两个链表">
     <polygon fill="none" points="517.5,-396 391.5,-396 391.5,-360 517.5,-360 517.5,-396" stroke="orange"/>
     <text font-family="Microsoft YaHei" font-size="12.00" text-anchor="middle" x="454.5" y="-374.9">
      1669. 合并两个链表
     </text>
    </a>
   </g>
  </g>
  <!-- 430&#45;&gt;1669 -->
  <g class="edge" id="edge20">
   <title>
    430-&gt;1669
   </title>
   <path d="M455.25,-431.7C455.14,-423.98 455.01,-414.71 454.89,-406.11" fill="none" stroke="lightgrey"/>
   <polygon fill="lightgrey" points="458.39,-406.05 454.74,-396.1 451.39,-406.15 458.39,-406.05" stroke="lightgrey"/>
  </g>
  <!-- 86 -->
  <g class="node" id="node22">
   <title>
    86
   </title>
   <g id="a_node22">
    <a target="_parent" xlink:href="https://leetcode-cn.com/problems/partition-list" xlink:title="86. 分隔链表">
     <polygon fill="none" points="498,-324 411,-324 411,-288 498,-288 498,-324" stroke="orange"/>
     <text font-family="Microsoft YaHei" font-size="12.00" text-anchor="middle" x="454.5" y="-302.9">
      86. 分隔链表
     </text>
    </a>
   </g>
  </g>
  <!-- 1669&#45;&gt;86 -->
  <g class="edge" id="edge21">
   <title>
    1669-&gt;86
   </title>
   <path d="M454.5,-359.7C454.5,-351.98 454.5,-342.71 454.5,-334.11" fill="none" stroke="lightgrey"/>
   <polygon fill="lightgrey" points="458,-334.1 454.5,-324.1 451,-334.1 458,-334.1" stroke="lightgrey"/>
  </g>
  <!-- 328 -->
  <g class="node" id="node23">
   <title>
    328
   </title>
   <g id="a_node23">
    <a target="_parent" xlink:href="https://leetcode-cn.com/problems/odd-even-linked-list" xlink:title="328. 奇偶链表">
     <polygon fill="none" points="502,-252 407,-252 407,-216 502,-216 502,-252" stroke="orange"/>
     <text font-family="Microsoft YaHei" font-size="12.00" text-anchor="middle" x="454.5" y="-230.9">
      328. 奇偶链表
     </text>
    </a>
   </g>
  </g>
  <!-- 86&#45;&gt;328 -->
  <g class="edge" id="edge22">
   <title>
    86-&gt;328
   </title>
   <path d="M454.5,-287.7C454.5,-279.98 454.5,-270.71 454.5,-262.11" fill="none" stroke="lightgrey"/>
   <polygon fill="lightgrey" points="458,-262.1 454.5,-252.1 451,-262.1 458,-262.1" stroke="lightgrey"/>
  </g>
  <!-- 725 -->
  <g class="node" id="node24">
   <title>
    725
   </title>
   <g id="a_node24">
    <a target="_parent" xlink:href="https://leetcode-cn.com/problems/split-linked-list-in-parts" xlink:title="725. 分隔链表">
     <polygon fill="none" points="502,-180 407,-180 407,-144 502,-144 502,-180" stroke="orange"/>
     <text font-family="Microsoft YaHei" font-size="12.00" text-anchor="middle" x="454.5" y="-158.9">
      725. 分隔链表
     </text>
    </a>
   </g>
  </g>
  <!-- 328&#45;&gt;725 -->
  <g class="edge" id="edge23">
   <title>
    328-&gt;725
   </title>
   <path d="M454.5,-215.7C454.5,-207.98 454.5,-198.71 454.5,-190.11" fill="none" stroke="lightgrey"/>
   <polygon fill="lightgrey" points="458,-190.1 454.5,-180.1 451,-190.1 458,-190.1" stroke="lightgrey"/>
  </g>
  <!-- 21 -->
  <g class="node" id="node25">
   <title>
    21
   </title>
   <g id="a_node25">
    <a target="_parent" xlink:href="https://leetcode-cn.com/problems/merge-two-sorted-lists" xlink:title="21. 合并两个有序链表">
     <polygon fill="none" points="522,-108 387,-108 387,-72 522,-72 522,-108" stroke="greenyellow"/>
     <text font-family="Microsoft YaHei" font-size="12.00" text-anchor="middle" x="454.5" y="-86.9">
      21. 合并两个有序链表
     </text>
    </a>
   </g>
  </g>
  <!-- 725&#45;&gt;21 -->
  <g class="edge" id="edge24">
   <title>
    725-&gt;21
   </title>
   <path d="M454.5,-143.7C454.5,-135.98 454.5,-126.71 454.5,-118.11" fill="none" stroke="lightgrey"/>
   <polygon fill="lightgrey" points="458,-118.1 454.5,-108.1 451,-118.1 458,-118.1" stroke="lightgrey"/>
  </g>
  <!-- 23 -->
  <g class="node" id="node26">
   <title>
    23
   </title>
   <g id="a_node26">
    <a target="_parent" xlink:href="https://leetcode-cn.com/problems/merge-k-sorted-lists" xlink:title="23. 合并K个升序链表">
     <polygon fill="none" points="520,-36 389,-36 389,0 520,0 520,-36" stroke="red"/>
     <text font-family="Microsoft YaHei" font-size="12.00" text-anchor="middle" x="454.5" y="-14.9">
      23. 合并K个升序链表
     </text>
    </a>
   </g>
  </g>
  <!-- 21&#45;&gt;23 -->
  <g class="edge" id="edge25">
   <title>
    21-&gt;23
   </title>
   <path d="M454.5,-71.7C454.5,-63.98 454.5,-54.71 454.5,-46.11" fill="none" stroke="lightgrey"/>
   <polygon fill="lightgrey" points="458,-46.1 454.5,-36.1 451,-46.1 458,-46.1" stroke="lightgrey"/>
  </g>
  <!-- 876 -->
  <g class="node" id="node28">
   <title>
    876
   </title>
   <g id="a_node28">
    <a target="_parent" xlink:href="https://leetcode-cn.com/problems/middle-of-the-linked-list" xlink:title="876. 链表的中间结点">
     <polygon fill="none" points="655,-612 524,-612 524,-576 655,-576 655,-612" stroke="greenyellow"/>
     <text font-family="Microsoft YaHei" font-size="12.00" text-anchor="middle" x="589.5" y="-590.9">
      876. 链表的中间结点
     </text>
    </a>
   </g>
  </g>
  <!-- 快慢指针&#45;&gt;876 -->
  <g class="edge" id="edge27">
   <title>
    快慢指针-&gt;876
   </title>
   <path d="M554.87,-647.7C560.22,-639.56 566.7,-629.69 572.61,-620.7" fill="none" stroke="lightgrey"/>
   <polygon fill="lightgrey" points="575.69,-622.38 578.26,-612.1 569.84,-618.54 575.69,-622.38" stroke="lightgrey"/>
  </g>
  <!-- 19 -->
  <g class="node" id="node29">
   <title>
    19
   </title>
   <g id="a_node29">
    <a target="_parent" xlink:href="https://leetcode-cn.com/problems/remove-nth-node-from-end-of-list" xlink:title="19. 删除链表的倒数第 N 个结点">
     <polygon fill="none" points="704.5,-540 516.5,-540 516.5,-504 704.5,-504 704.5,-540" stroke="orange"/>
     <text font-family="Microsoft YaHei" font-size="12.00" text-anchor="middle" x="610.5" y="-518.9">
      19. 删除链表的倒数第 N 个结点
     </text>
    </a>
   </g>
  </g>
  <!-- 876&#45;&gt;19 -->
  <g class="edge" id="edge28">
   <title>
    876-&gt;19
   </title>
   <path d="M594.69,-575.7C597.03,-567.9 599.85,-558.51 602.45,-549.83" fill="none" stroke="lightgrey"/>
   <polygon fill="lightgrey" points="605.85,-550.69 605.37,-540.1 599.14,-548.68 605.85,-550.69" stroke="lightgrey"/>
  </g>
  <!-- 61 -->
  <g class="node" id="node30">
   <title>
    61
   </title>
   <g id="a_node30">
    <a target="_parent" xlink:href="https://leetcode-cn.com/problems/rotate-list" xlink:title="61. 旋转链表">
     <polygon fill="none" points="654,-468 567,-468 567,-432 654,-432 654,-468" stroke="orange"/>
     <text font-family="Microsoft YaHei" font-size="12.00" text-anchor="middle" x="610.5" y="-446.9">
      61. 旋转链表
     </text>
    </a>
   </g>
  </g>
  <!-- 19&#45;&gt;61 -->
  <g class="edge" id="edge29">
   <title>
    19-&gt;61
   </title>
   <path d="M610.5,-503.7C610.5,-495.98 610.5,-486.71 610.5,-478.11" fill="none" stroke="lightgrey"/>
   <polygon fill="lightgrey" points="614,-478.1 610.5,-468.1 607,-478.1 614,-478.1" stroke="lightgrey"/>
  </g>
  <!-- 1721 -->
  <g class="node" id="node31">
   <title>
    1721
   </title>
   <g id="a_node31">
    <a target="_parent" xlink:href="https://leetcode-cn.com/problems/swapping-nodes-in-a-linked-list" xlink:title="1721. 交换链表中的节点">
     <polygon fill="none" points="685.5,-396 535.5,-396 535.5,-360 685.5,-360 685.5,-396" stroke="orange"/>
     <text font-family="Microsoft YaHei" font-size="12.00" text-anchor="middle" x="610.5" y="-374.9">
      1721. 交换链表中的节点
     </text>
    </a>
   </g>
  </g>
  <!-- 61&#45;&gt;1721 -->
  <g class="edge" id="edge30">
   <title>
    61-&gt;1721
   </title>
   <path d="M610.5,-431.7C610.5,-423.98 610.5,-414.71 610.5,-406.11" fill="none" stroke="lightgrey"/>
   <polygon fill="lightgrey" points="614,-406.1 610.5,-396.1 607,-406.1 614,-406.1" stroke="lightgrey"/>
  </g>
  <!-- 109 -->
  <g class="node" id="node32">
   <title>
    109
   </title>
   <g id="a_node32">
    <a target="_parent" xlink:href="https://leetcode-cn.com/problems/convert-sorted-list-to-binary-search-tree" xlink:title="109. 有序链表转换二叉搜索树">
     <polygon fill="none" points="700,-324 521,-324 521,-288 700,-288 700,-324" stroke="orange"/>
     <text font-family="Microsoft YaHei" font-size="12.00" text-anchor="middle" x="610.5" y="-302.9">
      109. 有序链表转换二叉搜索树
     </text>
    </a>
   </g>
  </g>
  <!-- 1721&#45;&gt;109 -->
  <g class="edge" id="edge31">
   <title>
    1721-&gt;109
   </title>
   <path d="M610.5,-359.7C610.5,-351.98 610.5,-342.71 610.5,-334.11" fill="none" stroke="lightgrey"/>
   <polygon fill="lightgrey" points="614,-334.1 610.5,-324.1 607,-334.1 614,-334.1" stroke="lightgrey"/>
  </g>
  <!-- 141 -->
  <g class="node" id="node33">
   <title>
    141
   </title>
   <g id="a_node33">
    <a target="_parent" xlink:href="https://leetcode-cn.com/problems/linked-list-cycle" xlink:title="141. 环形链表">
     <polygon fill="none" points="658,-252 563,-252 563,-216 658,-216 658,-252" stroke="greenyellow"/>
     <text font-family="Microsoft YaHei" font-size="12.00" text-anchor="middle" x="610.5" y="-230.9">
      141. 环形链表
     </text>
    </a>
   </g>
  </g>
  <!-- 109&#45;&gt;141 -->
  <g class="edge" id="edge32">
   <title>
    109-&gt;141
   </title>
   <path d="M610.5,-287.7C610.5,-279.98 610.5,-270.71 610.5,-262.11" fill="none" stroke="lightgrey"/>
   <polygon fill="lightgrey" points="614,-262.1 610.5,-252.1 607,-262.1 614,-262.1" stroke="lightgrey"/>
  </g>
  <!-- 160 -->
  <g class="node" id="node34">
   <title>
    160
   </title>
   <g id="a_node34">
    <a target="_parent" xlink:href="https://leetcode-cn.com/problems/intersection-of-two-linked-lists" xlink:title="160. 相交链表">
     <polygon fill="none" points="658,-180 563,-180 563,-144 658,-144 658,-180" stroke="greenyellow"/>
     <text font-family="Microsoft YaHei" font-size="12.00" text-anchor="middle" x="610.5" y="-158.9">
      160. 相交链表
     </text>
    </a>
   </g>
  </g>
  <!-- 141&#45;&gt;160 -->
  <g class="edge" id="edge33">
   <title>
    141-&gt;160
   </title>
   <path d="M610.5,-215.7C610.5,-207.98 610.5,-198.71 610.5,-190.11" fill="none" stroke="lightgrey"/>
   <polygon fill="lightgrey" points="614,-190.1 610.5,-180.1 607,-190.1 614,-190.1" stroke="lightgrey"/>
  </g>
  <!-- 142 -->
  <g class="node" id="node35">
   <title>
    142
   </title>
   <g id="a_node35">
    <a target="_parent" xlink:href="https://leetcode-cn.com/problems/linked-list-cycle-ii" xlink:title="142. 环形链表 II">
     <polygon fill="none" points="663.5,-108 557.5,-108 557.5,-72 663.5,-72 663.5,-108" stroke="orange"/>
     <text font-family="Microsoft YaHei" font-size="12.00" text-anchor="middle" x="610.5" y="-86.9">
      142. 环形链表 II
     </text>
    </a>
   </g>
  </g>
  <!-- 160&#45;&gt;142 -->
  <g class="edge" id="edge34">
   <title>
    160-&gt;142
   </title>
   <path d="M610.5,-143.7C610.5,-135.98 610.5,-126.71 610.5,-118.11" fill="none" stroke="lightgrey"/>
   <polygon fill="lightgrey" points="614,-118.1 610.5,-108.1 607,-118.1 614,-118.1" stroke="lightgrey"/>
  </g>
  <!-- 1290 -->
  <g class="node" id="node37">
   <title>
    1290
   </title>
   <g id="a_node37">
    <a target="_parent" xlink:href="https://leetcode-cn.com/problems/convert-binary-number-in-a-linked-list-to-integer" xlink:title="1290. 二进制链表转整数">
     <polygon fill="none" points="837.5,-612 687.5,-612 687.5,-576 837.5,-576 837.5,-612" stroke="greenyellow"/>
     <text font-family="Microsoft YaHei" font-size="12.00" text-anchor="middle" x="762.5" y="-590.9">
      1290. 二进制链表转整数
     </text>
    </a>
   </g>
  </g>
  <!-- 链表和其他算法&#45;&gt;1290 -->
  <g class="edge" id="edge36">
   <title>
    链表和其他算法-&gt;1290
   </title>
   <path d="M685.45,-647.88C698.54,-638.89 714.76,-627.76 728.94,-618.03" fill="none" stroke="lightgrey"/>
   <polygon fill="lightgrey" points="731.19,-620.73 737.45,-612.19 727.23,-614.96 731.19,-620.73" stroke="lightgrey"/>
  </g>
  <!-- 817 -->
  <g class="node" id="node38">
   <title>
    817
   </title>
   <g id="a_node38">
    <a target="_parent" xlink:href="https://leetcode-cn.com/problems/linked-list-components" xlink:title="817. 链表组件">
     <polygon fill="none" points="824,-540 729,-540 729,-504 824,-504 824,-540" stroke="orange"/>
     <text font-family="Microsoft YaHei" font-size="12.00" text-anchor="middle" x="776.5" y="-518.9">
      817. 链表组件
     </text>
    </a>
   </g>
  </g>
  <!-- 1290&#45;&gt;817 -->
  <g class="edge" id="edge37">
   <title>
    1290-&gt;817
   </title>
   <path d="M765.96,-575.7C767.5,-567.98 769.36,-558.71 771.08,-550.11" fill="none" stroke="lightgrey"/>
   <polygon fill="lightgrey" points="774.55,-550.6 773.08,-540.1 767.69,-549.22 774.55,-550.6" stroke="lightgrey"/>
  </g>
  <!-- 1367 -->
  <g class="node" id="node39">
   <title>
    1367
   </title>
   <g id="a_node39">
    <a target="_parent" xlink:href="https://leetcode-cn.com/problems/linked-list-in-binary-tree" xlink:title="1367. 二叉树中的列表">
     <polygon fill="none" points="858.5,-468 720.5,-468 720.5,-432 858.5,-432 858.5,-468" stroke="orange"/>
     <text font-family="Microsoft YaHei" font-size="12.00" text-anchor="middle" x="789.5" y="-446.9">
      1367. 二叉树中的列表
     </text>
    </a>
   </g>
  </g>
  <!-- 817&#45;&gt;1367 -->
  <g class="edge" id="edge38">
   <title>
    817-&gt;1367
   </title>
   <path d="M779.71,-503.7C781.15,-495.98 782.87,-486.71 784.46,-478.11" fill="none" stroke="lightgrey"/>
   <polygon fill="lightgrey" points="787.94,-478.58 786.32,-468.1 781.06,-477.3 787.94,-478.58" stroke="lightgrey"/>
  </g>
  <!-- 1019 -->
  <g class="node" id="node40">
   <title>
    1019
   </title>
   <g id="a_node40">
    <a target="_parent" xlink:href="https://leetcode-cn.com/problems/next-greater-node-in-linked-list" xlink:title="1019. 链表中的下一个更大节点">
     <polygon fill="none" points="889.5,-396 703.5,-396 703.5,-360 889.5,-360 889.5,-396" stroke="orange"/>
     <text font-family="Microsoft YaHei" font-size="12.00" text-anchor="middle" x="796.5" y="-374.9">
      1019. 链表中的下一个更大节点
     </text>
    </a>
   </g>
  </g>
  <!-- 1367&#45;&gt;1019 -->
  <g class="edge" id="edge39">
   <title>
    1367-&gt;1019
   </title>
   <path d="M791.23,-431.7C792,-423.98 792.93,-414.71 793.79,-406.11" fill="none" stroke="lightgrey"/>
   <polygon fill="lightgrey" points="797.28,-406.4 794.79,-396.1 790.31,-405.71 797.28,-406.4" stroke="lightgrey"/>
  </g>
  <!-- 147 -->
  <g class="node" id="node41">
   <title>
    147
   </title>
   <g id="a_node41">
    <a target="_parent" xlink:href="https://leetcode-cn.com/problems/insertion-sort-list" xlink:title="147. 对链表进行插入排序">
     <polygon fill="none" points="874,-324 719,-324 719,-288 874,-288 874,-324" stroke="orange"/>
     <text font-family="Microsoft YaHei" font-size="12.00" text-anchor="middle" x="796.5" y="-302.9">
      147. 对链表进行插入排序
     </text>
    </a>
   </g>
  </g>
  <!-- 1019&#45;&gt;147 -->
  <g class="edge" id="edge40">
   <title>
    1019-&gt;147
   </title>
   <path d="M796.5,-359.7C796.5,-351.98 796.5,-342.71 796.5,-334.11" fill="none" stroke="lightgrey"/>
   <polygon fill="lightgrey" points="800,-334.1 796.5,-324.1 793,-334.1 800,-334.1" stroke="lightgrey"/>
  </g>
  <!-- 148 -->
  <g class="node" id="node42">
   <title>
    148
   </title>
   <g id="a_node42">
    <a target="_parent" xlink:href="https://leetcode-cn.com/problems/sort-list" xlink:title="148. 排序链表">
     <polygon fill="none" points="844,-252 749,-252 749,-216 844,-216 844,-252" stroke="orange"/>
     <text font-family="Microsoft YaHei" font-size="12.00" text-anchor="middle" x="796.5" y="-230.9">
      148. 排序链表
     </text>
    </a>
   </g>
  </g>
  <!-- 147&#45;&gt;148 -->
  <g class="edge" id="edge41">
   <title>
    147-&gt;148
   </title>
   <path d="M796.5,-287.7C796.5,-279.98 796.5,-270.71 796.5,-262.11" fill="none" stroke="lightgrey"/>
   <polygon fill="lightgrey" points="800,-262.1 796.5,-252.1 793,-262.1 800,-262.1" stroke="lightgrey"/>
  </g>
  <!-- 138 -->
  <g class="node" id="node43">
   <title>
    138
   </title>
   <g id="a_node43">
    <a target="_parent" xlink:href="https://leetcode-cn.com/problems/copy-list-with-random-pointer" xlink:title="138. 复制带随机指针的链表">
     <polygon fill="none" points="880,-180 713,-180 713,-144 880,-144 880,-180" stroke="orange"/>
     <text font-family="Microsoft YaHei" font-size="12.00" text-anchor="middle" x="796.5" y="-158.9">
      138. 复制带随机指针的链表
     </text>
    </a>
   </g>
  </g>
  <!-- 148&#45;&gt;138 -->
  <g class="edge" id="edge42">
   <title>
    148-&gt;138
   </title>
   <path d="M796.5,-215.7C796.5,-207.98 796.5,-198.71 796.5,-190.11" fill="none" stroke="lightgrey"/>
   <polygon fill="lightgrey" points="800,-190.1 796.5,-180.1 793,-190.1 800,-190.1" stroke="lightgrey"/>
  </g>
  <g class="key">
   <defs>
    <filter height="1.2" id="solid" width="1.2" x="-0.1" y="-0.1">
     <feFlood flood-color="#ccff90" result="bg"/>
     <feMerge>
      <feMergeNode in="bg"/>
      <feMergeNode in="SourceGraphic"/>
     </feMerge>
    </filter>
   </defs>
   <text filter="url(#solid)" font-family="Microsoft YaHei" font-size="10.00" text-anchor="middle" x="65.5" y="-571.0">
    链表增删改查
   </text>
  </g>
  <g class="key">
   <defs>
    <filter height="1.2" id="solid" width="1.2" x="-0.1" y="-0.1">
     <feFlood flood-color="#ccff90" result="bg"/>
     <feMerge>
      <feMergeNode in="bg"/>
      <feMergeNode in="SourceGraphic"/>
     </feMerge>
    </filter>
   </defs>
   <text filter="url(#solid)" font-family="Microsoft YaHei" font-size="10.00" text-anchor="middle" x="315.5" y="-571.0">
    简单删除
   </text>
  </g>
  <g class="key">
   <defs>
    <filter height="1.2" id="solid" width="1.2" x="-0.1" y="-0.1">
     <feFlood flood-color="#ccff90" result="bg"/>
     <feMerge>
      <feMergeNode in="bg"/>
      <feMergeNode in="SourceGraphic"/>
     </feMerge>
    </filter>
   </defs>
   <text filter="url(#solid)" font-family="Microsoft YaHei" font-size="10.00" text-anchor="middle" x="291.5" y="-499.0">
    删除多个
   </text>
  </g>
  <g class="key">
   <defs>
    <filter height="1.2" id="solid" width="1.2" x="-0.1" y="-0.1">
     <feFlood flood-color="#ccff90" result="bg"/>
     <feMerge>
      <feMergeNode in="bg"/>
      <feMergeNode in="SourceGraphic"/>
     </feMerge>
    </filter>
   </defs>
   <text filter="url(#solid)" font-family="Microsoft YaHei" font-size="10.00" text-anchor="middle" x="268.5" y="-283.0">
    区间和
   </text>
  </g>
  <g class="key">
   <defs>
    <filter height="1.2" id="solid" width="1.2" x="-0.1" y="-0.1">
     <feFlood flood-color="#ccff90" result="bg"/>
     <feMerge>
      <feMergeNode in="bg"/>
      <feMergeNode in="SourceGraphic"/>
     </feMerge>
    </filter>
   </defs>
   <text filter="url(#solid)" font-family="Microsoft YaHei" font-size="10.00" text-anchor="middle" x="454.5" y="5.0">
    堆
   </text>
  </g>
  <g class="key">
   <defs>
    <filter height="1.2" id="solid" width="1.2" x="-0.1" y="-0.1">
     <feFlood flood-color="#ccff90" result="bg"/>
     <feMerge>
      <feMergeNode in="bg"/>
      <feMergeNode in="SourceGraphic"/>
     </feMerge>
    </filter>
   </defs>
   <text filter="url(#solid)" font-family="Microsoft YaHei" font-size="10.00" text-anchor="middle" x="610.5" y="-139.0">
    路程相等
   </text>
  </g>
  <g class="key">
   <defs>
    <filter height="1.2" id="solid" width="1.2" x="-0.1" y="-0.1">
     <feFlood flood-color="#ccff90" result="bg"/>
     <feMerge>
      <feMergeNode in="bg"/>
      <feMergeNode in="SourceGraphic"/>
     </feMerge>
    </filter>
   </defs>
   <text filter="url(#solid)" font-family="Microsoft YaHei" font-size="10.00" text-anchor="middle" x="610.5" y="-67.0">
    公式推理
   </text>
  </g>
  <g class="key">
   <defs>
    <filter height="1.2" id="solid" width="1.2" x="-0.1" y="-0.1">
     <feFlood flood-color="#ccff90" result="bg"/>
     <feMerge>
      <feMergeNode in="bg"/>
      <feMergeNode in="SourceGraphic"/>
     </feMerge>
    </filter>
   </defs>
   <text filter="url(#solid)" font-family="Microsoft YaHei" font-size="10.00" text-anchor="middle" x="762.5" y="-571.0">
    位运算
   </text>
  </g>
  <g class="key">
   <defs>
    <filter height="1.2" id="solid" width="1.2" x="-0.1" y="-0.1">
     <feFlood flood-color="#ccff90" result="bg"/>
     <feMerge>
      <feMergeNode in="bg"/>
      <feMergeNode in="SourceGraphic"/>
     </feMerge>
    </filter>
   </defs>
   <text filter="url(#solid)" font-family="Microsoft YaHei" font-size="10.00" text-anchor="middle" x="776.5" y="-499.0">
    set
   </text>
  </g>
  <g class="key">
   <defs>
    <filter height="1.2" id="solid" width="1.2" x="-0.1" y="-0.1">
     <feFlood flood-color="#ccff90" result="bg"/>
     <feMerge>
      <feMergeNode in="bg"/>
      <feMergeNode in="SourceGraphic"/>
     </feMerge>
    </filter>
   </defs>
   <text filter="url(#solid)" font-family="Microsoft YaHei" font-size="10.00" text-anchor="middle" x="789.5" y="-427.0">
    二叉树搜索
   </text>
  </g>
  <g class="key">
   <defs>
    <filter height="1.2" id="solid" width="1.2" x="-0.1" y="-0.1">
     <feFlood flood-color="#ccff90" result="bg"/>
     <feMerge>
      <feMergeNode in="bg"/>
      <feMergeNode in="SourceGraphic"/>
     </feMerge>
    </filter>
   </defs>
   <text filter="url(#solid)" font-family="Microsoft YaHei" font-size="10.00" text-anchor="middle" x="796.5" y="-355.0">
    单调栈
   </text>
  </g>
  <g class="key">
   <defs>
    <filter height="1.2" id="solid" width="1.2" x="-0.1" y="-0.1">
     <feFlood flood-color="#ccff90" result="bg"/>
     <feMerge>
      <feMergeNode in="bg"/>
      <feMergeNode in="SourceGraphic"/>
     </feMerge>
    </filter>
   </defs>
   <text filter="url(#solid)" font-family="Microsoft YaHei" font-size="10.00" text-anchor="middle" x="796.5" y="-283.0">
    插入排序
   </text>
  </g>
  <g class="key">
   <defs>
    <filter height="1.2" id="solid" width="1.2" x="-0.1" y="-0.1">
     <feFlood flood-color="#ccff90" result="bg"/>
     <feMerge>
      <feMergeNode in="bg"/>
      <feMergeNode in="SourceGraphic"/>
     </feMerge>
    </filter>
   </defs>
   <text filter="url(#solid)" font-family="Microsoft YaHei" font-size="10.00" text-anchor="middle" x="796.5" y="-211.0">
    归并排序
   </text>
  </g>
  <g class="key">
   <defs>
    <filter height="1.2" id="solid" width="1.2" x="-0.1" y="-0.1">
     <feFlood flood-color="#ccff90" result="bg"/>
     <feMerge>
      <feMergeNode in="bg"/>
      <feMergeNode in="SourceGraphic"/>
     </feMerge>
    </filter>
   </defs>
   <text filter="url(#solid)" font-family="Microsoft YaHei" font-size="10.00" text-anchor="middle" x="796.5" y="-139.0">
    map映射
   </text>
  </g>
 </g>
</svg>